<svg width="124" height="124" viewBox="0 0 124 124" fill="none" xmlns="http://www.w3.org/2000/svg">
<path d="M74.9927 45.826L70.5239 45.1752C70.3869 45.1752 70.2498 45.1752 70.2498 45.3119L68.3579 47.7392C68.25 47.8975 68.2014 48.0888 68.2209 48.2793C68.2209 48.416 68.0839 48.6893 67.9535 48.5526L66.4595 48.1492C66.192 48.1492 65.918 48.1491 65.8071 48.416L59.7139 56.2249C59.5769 56.3616 59.4398 56.3616 59.1724 56.3616L56.8694 55.2813C56.7717 55.2201 56.6587 55.1876 56.5433 55.1876C56.4279 55.1876 56.3148 55.2201 56.2171 55.2813L54.9384 56.1013C54.8412 56.164 54.728 56.1974 54.6122 56.1974C54.4965 56.1974 54.3832 56.164 54.286 56.1013L53.7445 55.8345C53.6564 55.7948 53.5609 55.7737 53.4642 55.7727C53.3675 55.7718 53.2716 55.7908 53.1826 55.8288C53.0937 55.8667 53.0136 55.9227 52.9475 55.9931C52.8814 56.0635 52.8307 56.1469 52.7986 56.2379L52.3876 58.1251C52.3388 58.3255 52.3519 58.5359 52.4253 58.7288C52.4986 58.9216 52.6288 59.0877 52.7986 59.2054L53.8815 59.8561L56.7194 61.6131L58.0764 62.4201C58.2669 62.5316 58.4882 62.5792 58.7079 62.5557C58.9275 62.5323 59.1338 62.4391 59.2963 62.2899L61.5927 60.2596C61.7905 60.1473 62.0193 60.1016 62.2451 60.1294L62.8975 60.5329C63.165 60.6695 63.439 60.6695 63.5499 60.3962L64.7633 59.316C64.8468 59.2322 64.953 59.1746 65.069 59.1503C65.1849 59.126 65.3054 59.1361 65.4157 59.1793L67.1771 59.9928C67.313 60.0372 67.4576 60.048 67.5985 60.0241C67.7395 60.0003 67.8725 59.9427 67.9861 59.8561L68.8015 58.7759L74.8948 50.9669C75.1623 50.5569 75.0253 50.0168 74.4838 50.0168L73.2051 49.7305C72.9311 49.7305 72.8007 49.327 72.9311 49.0797L75.097 46.5158C75.3971 46.2425 75.2601 45.826 74.9927 45.826Z" fill="white"/>
<path d="M54.6841 61.6391C54.5471 61.5024 54.4166 61.6391 54.4166 61.7757L55.069 63.5262V63.9362L54.5275 66.2268C54.5182 66.301 54.5257 66.3764 54.5494 66.4473C54.5731 66.5182 54.6125 66.583 54.6645 66.6368L56.289 67.8472C56.3639 67.9126 56.4601 67.9487 56.5597 67.9487C56.6593 67.9487 56.7555 67.9126 56.8304 67.8472L58.5919 66.3635C58.6446 66.3117 58.7083 66.2725 58.7784 66.2488C58.8484 66.2252 58.923 66.2176 58.9964 66.2268L60.8948 65.96C61.0253 65.96 61.0253 65.8234 60.8948 65.6867L54.6841 61.6391Z" fill="white"/>
<path d="M54.1424 67.4434C54.1195 67.4112 54.0892 67.3849 54.054 67.3668C54.0188 67.3486 53.9798 67.3392 53.9402 67.3392C53.9006 67.3392 53.8615 67.3486 53.8263 67.3668C53.7912 67.3849 53.7608 67.4112 53.7379 67.4434L52.381 68.0942C52.3633 68.0942 52.3457 68.0977 52.3295 68.1047C52.3132 68.1116 52.2985 68.1218 52.2863 68.1346C52.2741 68.1474 52.2646 68.1625 52.2585 68.179C52.2523 68.1956 52.2496 68.2132 52.2505 68.2308L49.2691 75.5192H49.4061L50.0585 75.2524V75.3826L47.8926 78.8966C47.8926 79.0333 47.8926 79.0333 48.023 79.0333L55.6037 71.3349C55.7407 71.3349 55.7408 71.1983 55.7408 71.0616L55.8777 69.0378C55.8777 68.9011 55.8778 68.771 55.7408 68.771L54.1424 67.4434Z" fill="white"/>
<path d="M46.4965 124L43.4955 118.397L48.7146 114.785L49.7192 116.185L48.0687 117.297C47.7868 117.5 47.4926 117.684 47.188 117.85C46.9126 118.007 46.6245 118.139 46.3268 118.247L51.9373 119.601L51.5524 121.189L45.9289 119.829C46.0765 119.98 46.2138 120.141 46.3399 120.31C46.4638 120.473 46.5813 120.649 46.6987 120.837L47.0575 121.488L48.01 123.232L46.4965 124Z" fill="#FFCD1E"/>
<path d="M21.9147 102.591C22.8084 101.569 24.2306 101.465 25.5028 102.591L28.1123 104.875L22.8933 110.816L20.8187 108.948C19.4617 107.764 18.9659 106.521 19.9184 105.428C20.1236 105.171 20.3999 104.98 20.713 104.878C21.0261 104.776 21.3622 104.768 21.6798 104.855C21.4457 104.51 21.3408 104.094 21.3838 103.68C21.4268 103.266 21.6147 102.88 21.9147 102.591ZM23.7805 107.549L22.7236 106.632C22.0712 106.053 21.5102 105.89 21.171 106.28C20.8317 106.671 21.0666 107.185 21.7385 107.764L22.7889 108.682L23.7805 107.549ZM22.9324 103.697C22.4692 104.23 22.7171 104.881 23.4478 105.519L24.6482 106.56L26.0117 105.005L24.8113 103.964C24.0806 103.326 23.4021 103.157 22.9324 103.697Z" fill="white"/>
<path d="M10.1586 97.1634L13.7597 94.4303C15.4168 93.1678 17.3152 93.1938 18.5352 94.7882C19.7551 96.3825 19.2724 98.2176 17.6153 99.4736L14.0142 102.207L13.1074 101.022L16.852 98.1721C17.0542 98.0493 17.2283 97.8856 17.3629 97.6915C17.4976 97.4974 17.59 97.2773 17.6339 97.0453C17.6779 96.8134 17.6725 96.5748 17.6181 96.345C17.5637 96.1153 17.4616 95.8995 17.3182 95.7116C17.1749 95.5238 16.9936 95.368 16.7862 95.2545C16.5787 95.141 16.3496 95.0722 16.1137 95.0527C15.8779 95.0331 15.6405 95.0631 15.4171 95.1409C15.1936 95.2187 14.9891 95.3423 14.8166 95.504L11.0654 98.3478L10.1586 97.1634Z" fill="white"/>
<path d="M13.8709 87.968L6.87736 91.6447L6.17932 90.3432L13.1859 86.647L13.8709 87.968Z" fill="white"/>
<path d="M8.0187 77.901L9.44091 77.4129L10.9675 81.8185L3.48465 84.4215L2.99536 83.0093L9.04948 80.9269L8.0187 77.901Z" fill="white"/>
<path d="M3.40011 66.5783C5.56603 66.279 7.51664 67.5219 7.87545 70.1184L8.23428 72.7214L0.405675 73.7951L0.0533826 71.1921C-0.311952 68.524 1.24072 66.8711 3.40011 66.5783ZM3.60235 68.0555C3.28506 68.0839 2.97695 68.1767 2.69696 68.3283C2.41697 68.4799 2.17102 68.687 1.97426 68.9369C1.77749 69.1868 1.63407 69.4742 1.5528 69.7815C1.47153 70.0888 1.45413 70.4093 1.50167 70.7236L1.68434 72.0901L6.53808 71.4394L6.34888 70.0793C6.31025 69.7641 6.20776 69.4599 6.04763 69.1854C5.88751 68.9109 5.6731 68.6717 5.41743 68.4824C5.16176 68.2931 4.87016 68.1577 4.56038 68.0843C4.2506 68.0109 3.92909 68.0011 3.61539 68.0555H3.60235Z" fill="white"/>
<path d="M1.14277 47.1271L2.62368 47.4199L2.2192 49.4372L8.50166 50.6867L8.20808 52.1508L1.92562 50.9014L1.52115 52.9122L0.0467529 52.6194L1.14277 47.1271Z" fill="white"/>
<path d="M5.46137 35.1602L12.755 38.2122L12.1744 39.5918L9.2191 38.3554L7.91434 41.4529L10.8696 42.6894L10.289 44.0624L2.99536 41.0104L3.57597 39.6309L6.52476 40.8673L7.82953 37.7697L4.88074 36.5333L5.46137 35.1602Z" fill="white"/>
<path d="M10.8502 28.9063L12.2528 29.8564L13.825 27.5397L15.0711 28.3792L13.4988 30.6958L14.9015 31.6459L16.7934 28.8672L18.0394 29.7067L15.3059 33.7218L8.7821 29.2967L11.5091 25.2816L12.7551 26.1276L10.8502 28.9063Z" fill="white"/>
<path d="M26.6185 20.6223L21.7778 14.3816L25.6269 11.4142L26.5468 12.5985L23.885 14.6549L24.9288 15.9955L27.1469 14.2775L28.0733 15.4683L25.8422 17.1928L27.7993 19.7177L26.6185 20.6223Z" fill="white"/>
<path d="M36.5347 5.21887L38.5636 9.247C39.4965 11.1016 39.1247 12.9563 37.3306 13.8608C35.5365 14.7653 33.8142 13.9519 32.8813 12.0908L30.8524 8.08216L32.1898 7.43142L34.3035 11.6222C34.4046 11.8201 34.5438 11.9961 34.7131 12.1403C34.8824 12.2845 35.0785 12.394 35.2902 12.4626C35.502 12.5312 35.7251 12.5575 35.9471 12.54C36.169 12.5226 36.3853 12.4617 36.5836 12.3608C36.7819 12.26 36.9584 12.1212 37.103 11.9523C37.2475 11.7834 37.3573 11.5878 37.4261 11.3766C37.4948 11.1654 37.5212 10.9428 37.5037 10.7214C37.4862 10.5001 37.4252 10.2843 37.3241 10.0865L35.2104 5.88914L36.5347 5.21887Z" fill="white"/>
<path d="M47.7624 1.53589L48.1603 2.98055L46.2032 3.52718L47.9059 9.68976L46.4576 10.0802L44.7614 3.92414L42.8043 4.47076L42.3998 3.0196L47.7624 1.53589Z" fill="white"/>
<path d="M60.2361 0L60.5623 4.49667C60.7123 6.56605 59.6489 8.13435 57.6461 8.27752C55.6433 8.42068 54.3842 7.02157 54.2211 4.94568L53.8949 0.455522L55.3889 0.344896L55.7216 5.03028C55.7103 5.26915 55.7498 5.50769 55.8377 5.73018C55.9256 5.95268 56.0597 6.15407 56.2313 6.32107C56.4029 6.48808 56.608 6.61691 56.8331 6.69906C57.0583 6.78122 57.2983 6.81484 57.5374 6.7977C57.7766 6.78057 58.0093 6.71307 58.2204 6.59965C58.4314 6.48624 58.616 6.32948 58.7619 6.13972C58.9077 5.94996 59.0117 5.73152 59.0667 5.49878C59.1218 5.26604 59.1268 5.02431 59.0814 4.78951L58.7421 0.10412L60.2361 0Z" fill="white"/>
<path d="M69.9433 8.57096L68.5276 5.7337L67.6339 5.62307L67.3012 8.22606L65.8137 8.03084L66.8249 0.221863L69.6106 0.579776C71.6395 0.840075 72.4354 2.05697 72.2201 3.57322C72.1574 4.12568 71.919 4.6436 71.5398 5.05111C71.1606 5.45862 70.6606 5.73432 70.1129 5.83782L71.7308 8.81174L69.9433 8.57096ZM67.8296 4.13286L69.317 4.32158C69.4744 4.3557 69.637 4.35806 69.7953 4.32854C69.9535 4.29901 70.1043 4.23818 70.2387 4.14965C70.373 4.06111 70.4882 3.94665 70.5776 3.81301C70.6669 3.67936 70.7285 3.52924 70.7588 3.37148C70.7791 3.20834 70.7645 3.04275 70.7157 2.8857C70.667 2.72866 70.5853 2.58376 70.476 2.46065C70.3668 2.33754 70.2326 2.23903 70.0822 2.17167C69.9319 2.10431 69.7689 2.06965 69.6041 2.06999L68.1166 1.88127L67.8296 4.13286Z" fill="white"/>
<path d="M79.8139 4.33398L79.2855 5.94133L81.9472 6.81984L81.4775 8.24498L78.8158 7.36647L78.2873 8.97382L81.484 10.028L81.0339 11.4532L76.4215 9.93041L78.894 2.44031L83.5129 3.95655L83.0432 5.3882L79.8139 4.33398Z" fill="white"/>
<path d="M100.801 11.844L101.232 18.1823L94.9622 19.3276L94.6229 17.6291L96.5801 17.2908C96.9389 17.2257 97.2847 17.1736 97.6109 17.1476C97.9256 17.1215 98.242 17.1215 98.5568 17.1476L93.9901 13.6075L94.9948 12.306L99.5615 15.8461C99.4878 15.649 99.4289 15.4467 99.3853 15.2409C99.3354 15.0267 99.3005 14.8092 99.281 14.5902C99.281 14.3754 99.2288 14.1281 99.2092 13.8678L99.0591 11.9156L100.801 11.844Z" fill="#FFCD1E"/>
<path d="M111.435 40.5415L113.079 37.8344L112.701 37.021L110.313 38.1273L109.661 36.7737L116.837 33.4549L118.024 35.9928C118.885 37.8409 118.279 39.162 116.895 39.8062C116.393 40.0482 115.826 40.1232 115.278 40.0201C114.729 39.917 114.229 39.6414 113.849 39.2335L112.192 42.1879L111.435 40.5415ZM114.045 36.3898L114.697 37.7433C114.752 37.8947 114.837 38.0336 114.947 38.1517C115.056 38.2698 115.189 38.3647 115.336 38.4309C115.483 38.497 115.642 38.533 115.804 38.5368C115.965 38.5405 116.126 38.5119 116.276 38.4526C116.423 38.3818 116.553 38.2806 116.658 38.1557C116.763 38.0309 116.841 37.8852 116.885 37.7284C116.929 37.5715 116.94 37.4071 116.916 37.2459C116.892 37.0847 116.834 36.9304 116.745 36.7932L116.093 35.4397L114.045 36.3898Z" fill="white"/>
<path d="M119.296 53.1274C118.502 53.301 117.675 53.2364 116.918 52.9417C116.161 52.647 115.508 52.1354 115.042 51.4713C114.576 50.8073 114.317 50.0206 114.299 49.2102C114.28 48.3998 114.503 47.6021 114.938 46.9176C115.373 46.233 116.001 45.6923 116.744 45.3634C117.487 45.0345 118.311 44.9323 119.111 45.0696C119.912 45.2068 120.655 45.5775 121.245 46.1348C121.835 46.6921 122.246 47.4111 122.427 48.2013C122.667 49.2687 122.471 50.3873 121.884 51.311C121.297 52.2348 120.366 52.8881 119.296 53.1274V53.1274ZM118.963 51.6698C119.464 51.5503 119.918 51.2857 120.269 50.9092C120.619 50.5328 120.85 50.0613 120.932 49.5542C121.014 49.0472 120.945 48.5271 120.731 48.0596C120.518 47.5921 120.17 47.198 119.733 46.927C119.296 46.6559 118.788 46.5201 118.273 46.5365C117.758 46.5529 117.26 46.7209 116.841 47.0192C116.421 47.3176 116.1 47.733 115.917 48.2131C115.734 48.6933 115.697 49.2167 115.812 49.7175C115.887 50.0541 116.029 50.3725 116.229 50.654C116.428 50.9356 116.682 51.1747 116.976 51.3576C117.269 51.5404 117.595 51.6633 117.937 51.7192C118.278 51.775 118.627 51.7626 118.963 51.6828V51.6698Z" fill="white"/>
<path d="M118.063 64.5087L116.706 65.1009C116.086 64.403 115.735 63.5082 115.714 62.576C115.706 62.0334 115.804 61.4943 116.005 60.9897C116.205 60.4851 116.503 60.0248 116.881 59.635C117.26 59.2453 117.712 58.9337 118.211 58.7181C118.711 58.5026 119.248 58.3872 119.792 58.3787C120.336 58.3701 120.876 58.4686 121.382 58.6683C121.888 58.8681 122.349 59.1653 122.74 59.543C123.131 59.9207 123.443 60.3714 123.659 60.8695C123.875 61.3676 123.991 61.9032 124 62.4459C124.014 63.376 123.694 64.2806 123.099 64.9968L121.723 64.4502C122.228 63.9263 122.504 63.2245 122.493 62.4979C122.467 62.076 122.339 61.6667 122.119 61.3053C121.9 60.9439 121.595 60.6412 121.232 60.4235C120.869 60.2058 120.458 60.0796 120.035 60.0557C119.612 60.0319 119.189 60.1112 118.804 60.2867C118.419 60.4622 118.082 60.7287 117.823 61.0632C117.564 61.3977 117.39 61.79 117.317 62.2063C117.244 62.6226 117.274 63.0504 117.404 63.4527C117.534 63.855 117.76 64.2197 118.063 64.5152V64.5087Z" fill="white"/>
<path d="M114.181 76.0791L114.553 74.2244L118.519 71.9924L115.127 71.3416L115.421 69.8774L123.178 71.4067L122.884 72.8709L119.674 72.2201L122.349 75.578L121.977 77.4261L118.924 73.4045L114.181 76.0791Z" fill="white"/>
<path d="M118.128 84.22L116.556 83.5692L115.492 86.1722L114.103 85.6061L115.16 83.0031L113.594 82.3523L112.289 85.4564L110.893 84.8902L112.726 80.4001L120.053 83.3805L118.213 87.8707L116.823 87.3045L118.128 84.22Z" fill="white"/>
<path d="M112.348 98.0679L111.109 97.2349L112.224 95.5104L106.842 92.0484L107.651 90.799L113.033 94.261L114.155 92.5365L115.421 93.3499L112.348 98.0679Z" fill="white"/>
<path d="M100.253 103.534C99.2286 102.558 99.1634 101.003 100.605 99.5061C101.008 99.0679 101.498 98.7179 102.044 98.4782C102.59 98.2385 103.179 98.1143 103.776 98.1135L104.206 99.5646C103.738 99.5513 103.272 99.6333 102.837 99.8056C102.402 99.9779 102.007 100.237 101.675 100.567C100.957 101.315 100.82 102.011 101.218 102.395C101.616 102.779 102.21 102.565 103.032 101.933C104.826 100.56 105.961 100.593 106.822 101.419C107.684 102.246 107.873 103.892 106.516 105.324C105.844 106.045 104.938 106.506 103.958 106.625L103.463 105.278C104.207 105.185 104.898 104.84 105.42 104.302C105.974 103.729 106.294 103.072 105.837 102.63C105.381 102.187 104.989 102.447 104.063 103.131C102.699 104.113 101.473 104.706 100.253 103.534Z" fill="white"/>
<path d="M97.3435 111.07L96.3649 109.69L94.0751 111.304L93.2074 110.081L95.4973 108.467L94.5187 107.087L91.7656 109.039L90.8979 107.809L94.871 105.011L99.4376 111.447L95.4646 114.252L94.597 113.022L97.3435 111.07Z" fill="white"/>
<path d="M82.6973 113.679L85.7309 112.332L85.6526 110.725L87.1922 110.074L87.4336 118.605L86.1941 119.152L80.016 113.25L81.5491 112.599L82.6973 113.679ZM83.8324 114.818L85.9723 116.952L85.8157 113.939L83.8324 114.818Z" fill="white"/>
<path d="M73.3093 123.122L72.957 121.658L74.9599 121.183L73.479 114.968L74.9338 114.623L76.4147 120.838L78.4175 120.363L78.7698 121.82L73.3093 123.122Z" fill="white"/>
</svg>
